# xmcd
#
# Track frame offsets:
#	150
#	18035
#	33020
#	47200
#	63845
#	77365
#	89735
#	104070
#	118485
#	133612
#	150402
#	164725
#
# Disc length: 2367 seconds
#
# Revision: 0
# Processed by: cddbd v1.5.1PL2 Copyright (c) Steve Scherf et al.
# Submitted via: dBpowerAMP V4.0
#
DISCID=98093d0c
DTITLE=Dave Maclean - dave
DYEAR=1900
DGENRE=
TTITLE0=Georgia On My Mind
TTITLE1=Stardust
TTITLE2=As Time Goes By
TTITLE3=Over The Rainbow
TTITLE4=Love´s A Many Splendored Thing
TTITLE5=Tears
TTITLE6=We Said Goodbye
TTITLE7=Stella By Starlight
TTITLE8=Crying
TTITLE9=Me And You
TTITLE10=My Special Angel
TTITLE11=Now I Know
EXTD=
EXTT0=
EXTT1=
EXTT2=
EXTT3=
EXTT4=
EXTT5=
EXTT6=
EXTT7=
EXTT8=
EXTT9=
EXTT10=
EXTT11=
PLAYORDER=
